<svg width="64" height="64" viewBox="0 0 64 64" fill="none" xmlns="http://www.w3.org/2000/svg">
<path d="M41 28C41 35.1797 35.1797 41 28 41C20.8203 41 15 35.1797 15 28C15 20.8203 20.8203 15 28 15C35.1797 15 41 20.8203 41 28Z" fill="url(#paint0_linear_16_49)"/>
<path d="M27 3C27 2.44771 27.4477 2 28 2C28.5523 2 29 2.44772 29 3V12C29 12.5523 28.5523 13 28 13C27.4477 13 27 12.5523 27 12V3Z" fill="url(#paint1_linear_16_49)"/>
<path d="M39.9431 5.86929C40.2161 5.38919 40.8266 5.22131 41.3067 5.49431C41.7868 5.76731 41.9547 6.37781 41.6817 6.8579L37.2329 14.6815C36.9599 15.1616 36.3494 15.3295 35.8693 15.0565C35.3892 14.7835 35.2213 14.173 35.4943 13.6929L39.9431 5.86929Z" fill="url(#paint2_linear_16_49)"/>
<path d="M56.8797 34.5086C57.4132 34.6515 57.7298 35.1998 57.5868 35.7333C57.4439 36.2668 56.8956 36.5834 56.3621 36.4404L47.9659 34.1907C47.4325 34.0477 47.1159 33.4994 47.2588 32.9659C47.4018 32.4325 47.9501 32.1159 48.4836 32.2588L56.8797 34.5086Z" fill="url(#paint3_linear_16_49)"/>
<path d="M14.3682 18.9141C14.8443 19.1941 15.0032 19.807 14.7232 20.2831C14.4432 20.7591 13.8303 20.918 13.3542 20.638L5.86194 16.2309C5.3859 15.9509 5.227 15.338 5.50701 14.8619C5.78703 14.3859 6.39993 14.227 6.87596 14.507L14.3682 18.9141Z" fill="url(#paint4_linear_16_49)"/>
<path d="M20.7017 13.1914C20.9778 13.6697 20.814 14.2813 20.3357 14.5574C19.8574 14.8335 19.2458 14.6697 18.9696 14.1914L16.5043 9.92134C16.2282 9.44304 16.3921 8.83145 16.8704 8.55531C17.3486 8.27917 17.9602 8.44304 18.2364 8.92134L20.7017 13.1914Z" fill="url(#paint5_linear_16_49)"/>
<path d="M36.4959 54.4493C36.6784 54.9706 36.4038 55.5411 35.8825 55.7236C35.3613 55.9061 34.7908 55.6315 34.6083 55.1102L32.3305 48.6047C32.148 48.0835 32.4226 47.513 32.9438 47.3305C33.4651 47.148 34.0356 47.4226 34.2181 47.9438L36.4959 54.4493Z" fill="url(#paint6_linear_16_49)"/>
<path d="M50.8503 49.5981C51.2353 49.994 51.2265 50.6271 50.8306 51.0122C50.4346 51.3972 49.8015 51.3884 49.4165 50.9924L43.6972 45.1112C43.3121 44.7153 43.321 44.0822 43.7169 43.6972C44.1128 43.3121 44.7459 43.321 45.131 43.7169L50.8503 49.5981Z" fill="url(#paint7_linear_16_49)"/>
<path d="M62.2154 61.0301C62.6004 61.426 62.5916 62.0591 62.1956 62.4442C61.7997 62.8292 61.1666 62.8204 60.7816 62.4244L52.1969 53.5968C51.8119 53.2009 51.8207 52.5678 52.2166 52.1827C52.6126 51.7977 53.2457 51.8065 53.6307 52.2025L62.2154 61.0301Z" fill="url(#paint8_linear_16_49)"/>
<path d="M12 27C12.5523 27 13 27.4477 13 28C13 28.5523 12.5523 29 12 29H3C2.44771 29 2 28.5523 2 28C2 27.4477 2.44772 27 3 27H12Z" fill="url(#paint9_linear_16_49)"/>
<path d="M13.6577 35.2335C14.136 34.9574 14.7476 35.1213 15.0237 35.5996C15.2998 36.0779 15.136 36.6894 14.6577 36.9656L9.86602 39.732C9.38773 40.0082 8.77614 39.8443 8.5 39.366C8.22385 38.8877 8.38773 38.2761 8.86602 38L13.6577 35.2335Z" fill="url(#paint10_linear_16_49)"/>
<path d="M18.5824 41.4235C18.8706 40.9524 19.4861 40.804 19.9573 41.0921C20.4284 41.3803 20.5768 41.9958 20.2887 42.467L14.0901 52.6027C13.8019 53.0739 13.1864 53.2222 12.7152 52.9341C12.2441 52.6459 12.0957 52.0304 12.3838 51.5592L18.5824 41.4235Z" fill="url(#paint11_linear_16_49)"/>
<path d="M27 44C27 43.4477 27.4477 43 28 43C28.5523 43 29 43.4477 29 44V57C29 57.5523 28.5523 58 28 58C27.4477 58 27 57.5523 27 57V44Z" fill="url(#paint12_linear_16_49)"/>
<path d="M35.548 42.9325C35.2454 42.4706 35.3745 41.8507 35.8365 41.548C36.2984 41.2454 36.9183 41.3745 37.2209 41.8365L49.626 60.7698C49.9287 61.2318 49.7996 61.8516 49.3376 62.1543C48.8756 62.457 48.2558 62.3278 47.9531 61.8659L35.548 42.9325Z" fill="url(#paint13_linear_16_49)"/>
<path d="M52.0567 12.988C52.5378 12.7167 53.1477 12.8868 53.4189 13.3679C53.6902 13.849 53.5201 14.4589 53.0391 14.7301L42.9421 20.4236C42.461 20.6949 41.8511 20.5248 41.5798 20.0438C41.3086 19.5627 41.4787 18.9528 41.9597 18.6815L52.0567 12.988Z" fill="url(#paint14_linear_16_49)"/>
<path d="M59 27C59.5523 27 60 27.4477 60 28C60 28.5523 59.5523 29 59 29H44C43.4477 29 43 28.5523 43 28C43 27.4477 43.4477 27 44 27H59Z" fill="url(#paint15_linear_16_49)"/>
<path d="M62.2133 45.554C62.7033 45.8089 62.8939 46.4127 62.639 46.9027C62.3842 47.3926 61.7804 47.5832 61.2904 47.3284L41.8872 37.2358C41.3972 36.9809 41.2066 36.3771 41.4615 35.8872C41.7163 35.3972 42.3201 35.2066 42.8101 35.4615L62.2133 45.554Z" fill="url(#paint16_linear_16_49)"/>
<circle cx="28" cy="28" r="13" fill="url(#paint17_linear_16_49)"/>
<defs>
<linearGradient id="paint0_linear_16_49" x1="57" y1="60.5" x2="11.5" y2="6.5" gradientUnits="userSpaceOnUse">
<stop stop-color="#00FFA3"/>
<stop offset="0.514423" stop-color="#FFE500" stop-opacity="0.9"/>
<stop offset="0.990385" stop-color="#DC1FFF"/>
</linearGradient>
<linearGradient id="paint1_linear_16_49" x1="57" y1="60.5" x2="11.5" y2="6.5" gradientUnits="userSpaceOnUse">
<stop stop-color="#00FFA3"/>
<stop offset="0.514423" stop-color="#FFE500" stop-opacity="0.9"/>
<stop offset="0.990385" stop-color="#DC1FFF"/>
</linearGradient>
<linearGradient id="paint2_linear_16_49" x1="57" y1="60.5" x2="11.5" y2="6.5" gradientUnits="userSpaceOnUse">
<stop stop-color="#00FFA3"/>
<stop offset="0.514423" stop-color="#FFE500" stop-opacity="0.9"/>
<stop offset="0.990385" stop-color="#DC1FFF"/>
</linearGradient>
<linearGradient id="paint3_linear_16_49" x1="57" y1="60.5" x2="11.5" y2="6.5" gradientUnits="userSpaceOnUse">
<stop stop-color="#00FFA3"/>
<stop offset="0.514423" stop-color="#FFE500" stop-opacity="0.9"/>
<stop offset="0.990385" stop-color="#DC1FFF"/>
</linearGradient>
<linearGradient id="paint4_linear_16_49" x1="57" y1="60.5" x2="11.5" y2="6.5" gradientUnits="userSpaceOnUse">
<stop stop-color="#00FFA3"/>
<stop offset="0.514423" stop-color="#FFE500" stop-opacity="0.9"/>
<stop offset="0.990385" stop-color="#DC1FFF"/>
</linearGradient>
<linearGradient id="paint5_linear_16_49" x1="57" y1="60.5" x2="11.5" y2="6.5" gradientUnits="userSpaceOnUse">
<stop stop-color="#00FFA3"/>
<stop offset="0.514423" stop-color="#FFE500" stop-opacity="0.9"/>
<stop offset="0.990385" stop-color="#DC1FFF"/>
</linearGradient>
<linearGradient id="paint6_linear_16_49" x1="57" y1="60.5" x2="11.5" y2="6.5" gradientUnits="userSpaceOnUse">
<stop stop-color="#00FFA3"/>
<stop offset="0.514423" stop-color="#FFE500" stop-opacity="0.9"/>
<stop offset="0.990385" stop-color="#DC1FFF"/>
</linearGradient>
<linearGradient id="paint7_linear_16_49" x1="57" y1="60.5" x2="11.5" y2="6.5" gradientUnits="userSpaceOnUse">
<stop stop-color="#00FFA3"/>
<stop offset="0.514423" stop-color="#FFE500" stop-opacity="0.9"/>
<stop offset="0.990385" stop-color="#DC1FFF"/>
</linearGradient>
<linearGradient id="paint8_linear_16_49" x1="57" y1="60.5" x2="11.5" y2="6.5" gradientUnits="userSpaceOnUse">
<stop stop-color="#00FFA3"/>
<stop offset="0.514423" stop-color="#FFE500" stop-opacity="0.9"/>
<stop offset="0.990385" stop-color="#DC1FFF"/>
</linearGradient>
<linearGradient id="paint9_linear_16_49" x1="57" y1="60.5" x2="11.5" y2="6.5" gradientUnits="userSpaceOnUse">
<stop stop-color="#00FFA3"/>
<stop offset="0.514423" stop-color="#FFE500" stop-opacity="0.9"/>
<stop offset="0.990385" stop-color="#DC1FFF"/>
</linearGradient>
<linearGradient id="paint10_linear_16_49" x1="57" y1="60.5" x2="11.5" y2="6.5" gradientUnits="userSpaceOnUse">
<stop stop-color="#00FFA3"/>
<stop offset="0.514423" stop-color="#FFE500" stop-opacity="0.9"/>
<stop offset="0.990385" stop-color="#DC1FFF"/>
</linearGradient>
<linearGradient id="paint11_linear_16_49" x1="57" y1="60.5" x2="11.5" y2="6.5" gradientUnits="userSpaceOnUse">
<stop stop-color="#00FFA3"/>
<stop offset="0.514423" stop-color="#FFE500" stop-opacity="0.9"/>
<stop offset="0.990385" stop-color="#DC1FFF"/>
</linearGradient>
<linearGradient id="paint12_linear_16_49" x1="57" y1="60.5" x2="11.5" y2="6.5" gradientUnits="userSpaceOnUse">
<stop stop-color="#00FFA3"/>
<stop offset="0.514423" stop-color="#FFE500" stop-opacity="0.9"/>
<stop offset="0.990385" stop-color="#DC1FFF"/>
</linearGradient>
<linearGradient id="paint13_linear_16_49" x1="57" y1="60.5" x2="11.5" y2="6.5" gradientUnits="userSpaceOnUse">
<stop stop-color="#00FFA3"/>
<stop offset="0.514423" stop-color="#FFE500" stop-opacity="0.9"/>
<stop offset="0.990385" stop-color="#DC1FFF"/>
</linearGradient>
<linearGradient id="paint14_linear_16_49" x1="57" y1="60.5" x2="11.5" y2="6.5" gradientUnits="userSpaceOnUse">
<stop stop-color="#00FFA3"/>
<stop offset="0.514423" stop-color="#FFE500" stop-opacity="0.9"/>
<stop offset="0.990385" stop-color="#DC1FFF"/>
</linearGradient>
<linearGradient id="paint15_linear_16_49" x1="57" y1="60.5" x2="11.5" y2="6.5" gradientUnits="userSpaceOnUse">
<stop stop-color="#00FFA3"/>
<stop offset="0.514423" stop-color="#FFE500" stop-opacity="0.9"/>
<stop offset="0.990385" stop-color="#DC1FFF"/>
</linearGradient>
<linearGradient id="paint16_linear_16_49" x1="57" y1="60.5" x2="11.5" y2="6.5" gradientUnits="userSpaceOnUse">
<stop stop-color="#00FFA3"/>
<stop offset="0.514423" stop-color="#FFE500" stop-opacity="0.9"/>
<stop offset="0.990385" stop-color="#DC1FFF"/>
</linearGradient>
<linearGradient id="paint17_linear_16_49" x1="18" y1="19" x2="41" y2="38.5" gradientUnits="userSpaceOnUse">
<stop offset="0.134615" stop-color="#DC1FFF"/>
<stop offset="1" stop-color="#00FFA3"/>
</linearGradient>
</defs>
</svg>
